# xmcd
#
# Track frame offsets: 
#        150
#        15623
#        42242
#        56915
#        76634
#        90443
#        104048
#        118858
#        133315
#        147438
#        166987
#
# Disc length: 2412 seconds
#
# Revision: 0
# Processed by: cddbd v1.5.2PL0 Copyright (c) Steve Scherf et al.
# Submitted via: ExactAudioCopy v0.95a5
#
DISCID=96096a0b
DTITLE=Misty Blues - Electric Juke Joint
DYEAR=1900
DGENRE=Blues
TTITLE0=Blow Top Blues
TTITLE1=My Man and I
TTITLE2=If You Have to Know
TTITLE3=Key to the Highway
TTITLE4=3 O'Clock Blues
TTITLE5=They Call Me Big Mama
TTITLE6=Who's Been Talking
TTITLE7=Men Are Like Street Cars
TTITLE8=Hot Nuts
TTITLE9=Wang Dang Doodle
TTITLE10=29 Ways
EXTD=
EXTT0=
EXTT1=
EXTT2=
EXTT3=
EXTT4=
EXTT5=
EXTT6=
EXTT7=
EXTT8=
EXTT9=
EXTT10=
PLAYORDER=
